<svg width="357" height="243" viewBox="0 0 357 243" fill="none" xmlns="http://www.w3.org/2000/svg">
<path d="M167.743 1L74.2427 170.5L138.743 155L209.743 1H167.743Z" fill="url(#paint0_linear_1_513)"/>
<path d="M247.062 88.9814C234.462 62.1896 222.627 34.1291 209.743 1L181.243 63C186.45 84.3192 192.584 103.238 199.747 121.196C215.349 111.797 231.258 101.191 247.062 88.9814Z" fill="url(#paint1_linear_1_513)"/>
<path d="M329.743 238C308.494 203.319 291.346 174.239 276.368 146.709C260.986 160.206 245.574 172.311 229.758 183.455C239.07 200.363 249.431 217.952 260.933 237.475L261.243 238H329.743Z" fill="url(#paint2_linear_1_513)"/>
<path d="M326.241 103.5C336.894 74.3788 343.768 48.4591 356.241 0C279.667 90.0626 236.336 134.535 96.7427 200C76.7427 205 38.2427 205.5 24.7427 191.5C19.7427 186.5 34.2427 179 16.7409 163C8.44999 172.888 3.23948 183 0.740082 195C-4.75992 229 20.7899 245.995 64.24 241.5C136.743 234 234.741 173.5 315.241 76C319.442 85.2101 322.236 91.6875 326.241 103.5Z" fill="url(#paint3_linear_1_513)"/>
<path d="M33.2434 167C33.2434 147 51.7434 134.5 79.2434 112.5C44.7417 132.5 24.7419 153.5 16.7434 163C5.24272 202.5 37.7427 207.5 67.7434 208C131.743 209.067 294.243 107.5 356.243 0C322.374 22.0931 302.511 32.1831 266.243 48C275.151 51.8015 279.642 54.0997 286.743 58.5C227.243 128.5 133.243 186 67.7434 186C48.2434 186 33.2434 180 33.2434 167Z" fill="url(#paint4_linear_1_513)"/>
<defs>
<linearGradient id="paint0_linear_1_513" x1="210.243" y1="1.50001" x2="74.2427" y2="170.5" gradientUnits="userSpaceOnUse">
<stop stop-color="#FEFEFD"/>
<stop offset="0.4" stop-color="#B9B9B8"/>
<stop offset="0.87" stop-color="#3A3A3B"/>
</linearGradient>
<linearGradient id="paint1_linear_1_513" x1="214.153" y1="1" x2="214.153" y2="121.196" gradientUnits="userSpaceOnUse">
<stop stop-color="#BBB9B9"/>
<stop offset="0.556382" stop-color="#3A3A3B"/>
<stop offset="0.901064" stop-color="#0F0E10"/>
</linearGradient>
<linearGradient id="paint2_linear_1_513" x1="330.243" y1="238.5" x2="261.743" y2="238.5" gradientUnits="userSpaceOnUse">
<stop stop-color="#D4D3D3"/>
<stop offset="0.822115" stop-color="#828283"/>
</linearGradient>
<linearGradient id="paint3_linear_1_513" x1="198.743" y1="-51.5" x2="49.7427" y2="242.5" gradientUnits="userSpaceOnUse">
<stop stop-color="#C2C1C1"/>
<stop offset="0.895621" stop-color="#3A3A3B"/>
<stop offset="1" stop-color="#0F0E10"/>
</linearGradient>
<linearGradient id="paint4_linear_1_513" x1="356.243" y1="0.500026" x2="32.7427" y2="203" gradientUnits="userSpaceOnUse">
<stop offset="0.1875" stop-color="#FEFEFE"/>
<stop offset="1" stop-color="#99999B"/>
</linearGradient>
</defs>
</svg>
