<svg width="626" height="136" viewBox="0 0 626 136" fill="none" xmlns="http://www.w3.org/2000/svg">
<path d="M38.8175 97H22.3402L47.4467 24.2727H67.2621L92.3331 97H75.8558L57.6385 40.892H57.0703L38.8175 97ZM37.7876 68.4134H76.7081V80.4162H37.7876V68.4134ZM112.93 24.2727V97H97.8026V24.2727H112.93ZM137.603 98.0298C134.123 98.0298 131.021 97.4261 128.299 96.2188C125.576 94.9877 123.422 93.1766 121.836 90.7855C120.273 88.3707 119.492 85.3641 119.492 81.7656C119.492 78.7353 120.048 76.1903 121.161 74.1307C122.274 72.071 123.789 70.4138 125.706 69.1591C127.624 67.9044 129.802 66.9574 132.24 66.3182C134.703 65.679 137.283 65.2292 139.982 64.9688C143.154 64.6373 145.711 64.3295 147.652 64.0455C149.594 63.7377 151.002 63.2879 151.878 62.696C152.754 62.1042 153.192 61.2282 153.192 60.0682V59.8551C153.192 57.6061 152.482 55.866 151.061 54.6349C149.665 53.4039 147.676 52.7884 145.096 52.7884C142.373 52.7884 140.207 53.392 138.597 54.5994C136.987 55.7831 135.922 57.2746 135.401 59.0739L121.409 57.9375C122.12 54.6231 123.516 51.7585 125.6 49.3438C127.683 46.9053 130.37 45.035 133.661 43.733C136.975 42.4072 140.81 41.7443 145.167 41.7443C148.197 41.7443 151.097 42.0994 153.867 42.8097C156.66 43.5199 159.134 44.6207 161.289 46.1122C163.467 47.6037 165.183 49.5213 166.438 51.8651C167.693 54.1851 168.32 56.9669 168.32 60.2102V97H153.973V89.4361H153.547C152.671 91.1406 151.499 92.6439 150.032 93.946C148.564 95.2244 146.8 96.2306 144.74 96.9645C142.681 97.6747 140.301 98.0298 137.603 98.0298ZM141.935 87.5895C144.16 87.5895 146.125 87.1515 147.83 86.2756C149.534 85.3759 150.872 84.1686 151.843 82.6534C152.813 81.1383 153.299 79.4219 153.299 77.5043V71.7159C152.825 72.0237 152.174 72.3078 151.346 72.5682C150.541 72.8049 149.629 73.0298 148.611 73.2429C147.593 73.4323 146.575 73.6098 145.557 73.7756C144.539 73.9176 143.616 74.0478 142.787 74.1662C141.012 74.4266 139.461 74.8409 138.135 75.4091C136.81 75.9773 135.78 76.7467 135.046 77.7173C134.312 78.6643 133.945 79.848 133.945 81.2685C133.945 83.3281 134.691 84.9025 136.182 85.9915C137.697 87.0568 139.615 87.5895 141.935 87.5895ZM225.956 42.4545L206.886 97H189.841L170.771 42.4545H186.751L198.079 81.4815H198.647L209.94 42.4545H225.956ZM244.786 98.0298C241.306 98.0298 238.205 97.4261 235.482 96.2188C232.76 94.9877 230.605 93.1766 229.019 90.7855C227.457 88.3707 226.675 85.3641 226.675 81.7656C226.675 78.7353 227.232 76.1903 228.344 74.1307C229.457 72.071 230.972 70.4138 232.89 69.1591C234.808 67.9044 236.986 66.9574 239.424 66.3182C241.886 65.679 244.467 65.2292 247.165 64.9688C250.338 64.6373 252.895 64.3295 254.836 64.0455C256.777 63.7377 258.186 63.2879 259.062 62.696C259.938 62.1042 260.376 61.2282 260.376 60.0682V59.8551C260.376 57.6061 259.665 55.866 258.245 54.6349C256.848 53.4039 254.86 52.7884 252.279 52.7884C249.557 52.7884 247.39 53.392 245.781 54.5994C244.171 55.7831 243.105 57.2746 242.585 59.0739L228.593 57.9375C229.303 54.6231 230.7 51.7585 232.783 49.3438C234.867 46.9053 237.554 45.035 240.844 43.733C244.159 42.4072 247.994 41.7443 252.35 41.7443C255.38 41.7443 258.281 42.0994 261.05 42.8097C263.844 43.5199 266.318 44.6207 268.472 46.1122C270.65 47.6037 272.367 49.5213 273.621 51.8651C274.876 54.1851 275.504 56.9669 275.504 60.2102V97H261.157V89.4361H260.731C259.855 91.1406 258.683 92.6439 257.215 93.946C255.747 95.2244 253.984 96.2306 251.924 96.9645C249.864 97.6747 247.485 98.0298 244.786 98.0298ZM249.119 87.5895C251.344 87.5895 253.309 87.1515 255.013 86.2756C256.718 85.3759 258.056 84.1686 259.026 82.6534C259.997 81.1383 260.482 79.4219 260.482 77.5043V71.7159C260.009 72.0237 259.358 72.3078 258.529 72.5682C257.724 72.8049 256.813 73.0298 255.795 73.2429C254.777 73.4323 253.759 73.6098 252.741 73.7756C251.723 73.9176 250.799 74.0478 249.971 74.1662C248.195 74.4266 246.645 74.8409 245.319 75.4091C243.993 75.9773 242.963 76.7467 242.229 77.7173C241.496 78.6643 241.129 79.848 241.129 81.2685C241.129 83.3281 241.874 84.9025 243.366 85.9915C244.881 87.0568 246.799 87.5895 249.119 87.5895ZM284.24 97V42.4545H298.906V51.9716H299.474C300.469 48.5862 302.138 46.0294 304.482 44.3011C306.825 42.5492 309.524 41.6733 312.578 41.6733C313.336 41.6733 314.152 41.7206 315.028 41.8153C315.904 41.91 316.674 42.0402 317.337 42.206V55.6293C316.626 55.4162 315.644 55.2268 314.389 55.0611C313.134 54.8954 311.986 54.8125 310.945 54.8125C308.719 54.8125 306.731 55.2978 304.979 56.2685C303.25 57.2154 301.877 58.5412 300.859 60.2457C299.865 61.9503 299.368 63.9152 299.368 66.1406V97H284.24ZM367.542 58.0085L353.692 58.8608C353.455 57.6771 352.946 56.6117 352.165 55.6648C351.384 54.6941 350.354 53.9247 349.076 53.3565C347.821 52.7647 346.318 52.4688 344.566 52.4688C342.222 52.4688 340.245 52.9659 338.635 53.9602C337.025 54.9309 336.221 56.233 336.221 57.8665C336.221 59.1686 336.741 60.2694 337.783 61.169C338.825 62.0687 340.612 62.7907 343.145 63.3352L353.017 65.3239C358.32 66.4129 362.274 68.1648 364.878 70.5795C367.482 72.9943 368.784 76.1667 368.784 80.0966C368.784 83.6714 367.731 86.8082 365.624 89.5071C363.541 92.206 360.676 94.313 357.03 95.8281C353.408 97.3196 349.23 98.0653 344.495 98.0653C337.274 98.0653 331.521 96.562 327.236 93.5554C322.975 90.5251 320.477 86.4058 319.743 81.1974L334.623 80.4162C335.072 82.6179 336.161 84.2988 337.89 85.4588C339.618 86.5952 341.831 87.1634 344.53 87.1634C347.182 87.1634 349.312 86.6544 350.922 85.6364C352.556 84.5947 353.384 83.2571 353.408 81.6236C353.384 80.2505 352.804 79.1259 351.668 78.25C350.532 77.3504 348.78 76.6638 346.412 76.1903L336.966 74.3082C331.64 73.2429 327.674 71.3963 325.07 68.7685C322.489 66.1406 321.199 62.7907 321.199 58.7188C321.199 55.215 322.146 52.1965 324.04 49.6634C325.958 47.1302 328.645 45.1771 332.101 43.804C335.581 42.4309 339.653 41.7443 344.317 41.7443C351.206 41.7443 356.628 43.2003 360.581 46.1122C364.559 49.0241 366.879 52.9896 367.542 58.0085ZM400.168 98.0653C394.558 98.0653 389.728 96.929 385.68 94.6562C381.655 92.3598 378.554 89.1165 376.376 84.9261C374.198 80.7121 373.109 75.7287 373.109 69.9759C373.109 64.3651 374.198 59.4408 376.376 55.2031C378.554 50.9654 381.62 47.6629 385.573 45.2955C389.55 42.928 394.214 41.7443 399.565 41.7443C403.163 41.7443 406.513 42.3243 409.614 43.4844C412.739 44.6207 415.462 46.3371 417.782 48.6335C420.126 50.9299 421.949 53.8182 423.251 57.2983C424.553 60.7547 425.204 64.803 425.204 69.4432V73.598H379.146V64.223H410.964C410.964 62.045 410.49 60.1155 409.543 58.4347C408.596 56.7538 407.282 55.4399 405.602 54.4929C403.944 53.5223 402.015 53.0369 399.813 53.0369C397.517 53.0369 395.481 53.5696 393.705 54.6349C391.953 55.6766 390.58 57.0852 389.586 58.8608C388.592 60.6127 388.083 62.5658 388.059 64.7202V73.6335C388.059 76.3324 388.556 78.6643 389.55 80.6293C390.568 82.5942 392.001 84.1094 393.847 85.1747C395.694 86.2401 397.884 86.7727 400.417 86.7727C402.098 86.7727 403.637 86.536 405.033 86.0625C406.43 85.589 407.626 84.8788 408.62 83.9318C409.614 82.9848 410.372 81.8248 410.893 80.4517L424.884 81.375C424.174 84.7367 422.718 87.6723 420.516 90.1818C418.338 92.6676 415.521 94.6089 412.065 96.0057C408.632 97.3788 404.666 98.0653 400.168 98.0653Z" fill="url(#paint0_linear_1_428)"/>
<path d="M463.278 97H437.497V24.2727H463.491C470.806 24.2727 477.104 25.7287 482.383 28.6406C487.663 31.5289 491.723 35.6837 494.564 41.1051C497.428 46.5265 498.86 53.0133 498.86 60.5653C498.86 68.1411 497.428 74.6515 494.564 80.0966C491.723 85.5417 487.639 89.7202 482.312 92.6321C477.009 95.544 470.664 97 463.278 97ZM452.873 83.8253H462.639C467.184 83.8253 471.008 83.0204 474.109 81.4105C477.234 79.777 479.578 77.2557 481.14 73.8466C482.726 70.4138 483.52 65.9867 483.52 60.5653C483.52 55.1913 482.726 50.7997 481.14 47.3906C479.578 43.9815 477.246 41.4721 474.145 39.8622C471.043 38.2524 467.22 37.4474 462.674 37.4474H452.873V83.8253ZM534.825 98.0653C529.214 98.0653 524.384 96.929 520.336 94.6562C516.311 92.3598 513.21 89.1165 511.032 84.9261C508.854 80.7121 507.765 75.7287 507.765 69.9759C507.765 64.3651 508.854 59.4408 511.032 55.2031C513.21 50.9654 516.276 47.6629 520.229 45.2955C524.207 42.928 528.871 41.7443 534.221 41.7443C537.819 41.7443 541.169 42.3243 544.271 43.4844C547.396 44.6207 550.118 46.3371 552.438 48.6335C554.782 50.9299 556.605 53.8182 557.907 57.2983C559.209 60.7547 559.86 64.803 559.86 69.4432V73.598H513.802V64.223H545.62C545.62 62.045 545.147 60.1155 544.2 58.4347C543.253 56.7538 541.939 55.4399 540.258 54.4929C538.601 53.5223 536.671 53.0369 534.469 53.0369C532.173 53.0369 530.137 53.5696 528.362 54.6349C526.61 55.6766 525.237 57.0852 524.242 58.8608C523.248 60.6127 522.739 62.5658 522.715 64.7202V73.6335C522.715 76.3324 523.212 78.6643 524.207 80.6293C525.225 82.5942 526.657 84.1094 528.504 85.1747C530.35 86.2401 532.54 86.7727 535.073 86.7727C536.754 86.7727 538.293 86.536 539.69 86.0625C541.086 85.589 542.282 84.8788 543.276 83.9318C544.271 82.9848 545.028 81.8248 545.549 80.4517L559.54 81.375C558.83 84.7367 557.374 87.6723 555.173 90.1818C552.995 92.6676 550.177 94.6089 546.721 96.0057C543.288 97.3788 539.323 98.0653 534.825 98.0653ZM619.12 42.4545L600.05 97H583.005L563.935 42.4545H579.915L591.243 81.4815H591.811L603.104 42.4545H619.12Z" fill="url(#paint1_linear_1_428)"/>
<defs>
<linearGradient id="paint0_linear_1_428" x1="0" y1="68" x2="449" y2="68" gradientUnits="userSpaceOnUse">
<stop offset="0.8125" stop-color="#FEFEFD"/>
<stop offset="1" stop-color="#BBB9B9"/>
</linearGradient>
<linearGradient id="paint1_linear_1_428" x1="610" y1="91" x2="442.5" y2="29.5" gradientUnits="userSpaceOnUse">
<stop offset="0.853823" stop-color="#BBB9B9"/>
<stop offset="1" stop-color="#FEFEFD"/>
</linearGradient>
</defs>
</svg>
